<?xml version="1.0" encoding="utf-8"?>
<!-- Generator: Adobe Illustrator 16.0.4, SVG Export Plug-In . SVG Version: 6.00 Build 0)  -->
<!-- Map by Fabiano Coelho from the Noun Project -->
<!DOCTYPE svg PUBLIC "-//W3C//DTD SVG 1.1//EN" "http://www.w3.org/Graphics/SVG/1.1/DTD/svg11.dtd">
<svg version="1.1" id="Layer_1" xmlns="http://www.w3.org/2000/svg" xmlns:xlink="http://www.w3.org/1999/xlink" x="0px" y="0px"
	 width="120.963px" height="134.398px" viewBox="419.507 159.038 120.963 134.398"
	 enable-background="new 419.507 159.038 120.963 134.398" xml:space="preserve">
<path d="M539.257,159.811c-1.231-0.838-2.433-1.003-3.799-0.453l-20.555,8.297l-20.639-8.297c-0.027-0.009,0-0.009-0.027-0.018
	c-0.175-0.067-0.336-0.099-0.52-0.144c-0.166-0.041-0.318-0.094-0.493-0.117c-0.21-0.027-0.412-0.009-0.622-0.009
	c-0.144,0.004-0.287-0.009-0.439,0.004c-0.201,0.022-0.398,0.09-0.601,0.139c-0.152,0.04-0.309,0.067-0.461,0.121
	c-0.022,0.009-0.05,0.009-0.076,0.018l-20.738,8.297l-20.737-8.297c-0.022-0.009-0.05-0.009-0.072-0.018
	c-0.175-0.067-0.358-0.098-0.542-0.143c-0.166-0.041-0.331-0.094-0.506-0.117c-0.211-0.022-0.417-0.009-0.627-0.009
	c-0.144,0.004-0.292-0.009-0.439,0.004c-0.215,0.027-0.421,0.09-0.632,0.148c-0.144,0.04-0.291,0.062-0.435,0.112
	c-0.026,0.009-0.054,0.009-0.08,0.022l-23.148,8.96c-1.698,0.681-3.562,2.33-3.562,4.162v116.479c0,1.488,1.487,2.877,2.71,3.71
	c0.753,0.507,2.003,0.771,2.89,0.771c0.564,0,1.312-0.104,1.846-0.318l20.832-8.297l20.783,8.297
	c0.054,0.022,0.134,0.014,0.188,0.031c0.484,0.176,0.995,0.287,1.51,0.287c0.516,0,1.026-0.111,1.51-0.287
	c0.054-0.018,0.107-0.009,0.161-0.031l20.743-8.297l20.737,8.297c0.054,0.022,0.107,0.014,0.162,0.031
	c0.483,0.176,0.985,0.287,1.5,0.287c0.516,0,1.018-0.111,1.501-0.287c0.054-0.018,0.107-0.009,0.161-0.031l21.652-8.96
	c1.707-0.681,2.074-2.329,2.074-4.162v-116.48C540.48,162.033,540.489,160.644,539.257,159.811z M428.48,175.513l13.439-5.376
	v106.83l-13.439,5.377V175.513z M450.88,170.137l13.44,5.376v106.831l-13.44-5.377V170.137z M473.28,175.513l13.439-5.376v106.83
	l-13.439,5.377V175.513z M495.68,170.137l13.44,5.376v106.831l-13.44-5.377V170.137z M531.52,276.967l-13.439,5.377V175.513
	l13.439-5.376V276.967z"/>
</svg>
